<?xml version="1.0" encoding="UTF-8"?>
<!DOCTYPE svg PUBLIC "-//W3C//DTD SVG 1.1//EN" "http://www.w3.org/Graphics/SVG/1.1/DTD/svg11.dtd">
<svg xmlns="http://www.w3.org/2000/svg" version="1.1" width="307px" height="306px" style="shape-rendering:geometricPrecision; text-rendering:geometricPrecision; image-rendering:optimizeQuality; fill-rule:evenodd; clip-rule:evenodd" xmlns:xlink="http://www.w3.org/1999/xlink">
<g><path style="opacity:0.995" fill="#ece8cf" d="M 277.5,131.5 C 276.5,131.833 275.833,132.5 275.5,133.5C 262.049,144.22 246.716,150.554 229.5,152.5C 221.685,125.52 204.685,107.02 178.5,97C 171.796,95.2593 165.129,95.2593 158.5,97C 154.929,99.4206 151.262,101.587 147.5,103.5C 139.64,75.6146 145.307,50.9479 164.5,29.5C 165.5,29.1667 166.167,28.5 166.5,27.5C 197.203,1.71138 230.537,-2.12195 266.5,16C 298.027,37.5836 308.194,66.7502 297,103.5C 292.585,114.394 286.085,123.727 277.5,131.5 Z"/></g>
<g><path style="opacity:0.487" fill="#000000" d="M 166.5,27.5 C 166.167,28.5 165.5,29.1667 164.5,29.5C 98.0973,23.1072 50.2639,49.7739 21,109.5C 0.424148,166.013 10.9241,215.847 52.5,259C 94.4785,295.554 141.812,304.554 194.5,286C 251.691,259.149 279.525,213.982 278,150.5C 277.397,144.778 276.564,139.111 275.5,133.5C 275.833,132.5 276.5,131.833 277.5,131.5C 287.402,186.301 271.402,231.801 229.5,268C 185.422,300.143 138.089,305.809 87.5,285C 40.5666,261.702 14.4,223.869 9,171.5C 7.20487,112.704 31.7049,68.8705 82.5,40C 109.201,27.0497 137.201,22.883 166.5,27.5 Z"/></g>
<g><path style="opacity:0.983" fill="#000000" d="M 229.5,152.5 C 232.287,162.181 232.12,171.848 229,181.5C 220.65,196.403 208.15,201.236 191.5,196C 169.359,187.192 153.859,171.692 145,149.5C 138.263,133.615 139.096,118.281 147.5,103.5C 151.262,101.587 154.929,99.4206 158.5,97C 165.129,95.2593 171.796,95.2593 178.5,97C 204.685,107.02 221.685,125.52 229.5,152.5 Z"/></g>
<g><path style="opacity:0.925" fill="#000000" d="M 124.5,179.5 C 137.291,180.452 142.124,187.118 139,199.5C 134.874,205.97 129.041,208.137 121.5,206C 117.667,204.833 115.167,202.333 114,198.5C 111.454,188.537 114.954,182.204 124.5,179.5 Z"/></g>
<g><path style="opacity:0.622" fill="#181818" d="M 109.5,206.5 C 114.09,211.29 119.756,213.624 126.5,213.5C 131.98,213.058 136.98,211.558 141.5,209C 131.829,217.297 121.829,217.631 111.5,210C 110.177,209.184 109.511,208.017 109.5,206.5 Z"/></g>
</svg>
