<?xml version="1.0" encoding="UTF-8"?>
<!DOCTYPE svg PUBLIC "-//W3C//DTD SVG 1.1//EN" "http://www.w3.org/Graphics/SVG/1.1/DTD/svg11.dtd">
<svg xmlns="http://www.w3.org/2000/svg" version="1.1" width="299px" height="296px" style="shape-rendering:geometricPrecision; text-rendering:geometricPrecision; image-rendering:optimizeQuality; fill-rule:evenodd; clip-rule:evenodd" xmlns:xlink="http://www.w3.org/1999/xlink">
<g><path style="opacity:0.997" fill="#ece8cf" d="M 270.5,127.5 C 268.246,128.124 266.579,129.457 265.5,131.5C 252.859,141.273 238.526,146.94 222.5,148.5C 214.685,121.52 197.685,103.02 171.5,93C 164.796,91.2593 158.129,91.2593 151.5,93C 147.929,95.4206 144.262,97.5873 140.5,99.5C 132.96,73.3401 137.627,49.6734 154.5,28.5C 156.452,27.2153 158.118,25.5486 159.5,23.5C 186.208,0.726781 216.208,-4.77322 249.5,7C 289.168,27.3227 302.335,58.8227 289,101.5C 284.555,111.436 278.389,120.103 270.5,127.5 Z"/></g>
<g><path style="opacity:0.822" fill="#000000" d="M 159.5,23.5 C 158.118,25.5486 156.452,27.2153 154.5,28.5C 96.8117,24.1959 52.9784,46.5293 23,95.5C -1.66405,147.867 3.66928,196.867 39,242.5C 76.541,282.599 122.041,295.765 175.5,282C 223.157,265.344 252.99,232.511 265,183.5C 268.166,166.193 268.332,148.86 265.5,131.5C 266.579,129.457 268.246,128.124 270.5,127.5C 280.943,191.755 258.943,241.255 204.5,276C 172.188,293.097 138.188,297.43 102.5,289C 59.3914,275.886 28.8914,248.72 11,207.5C -9.29997,146.606 4.20003,94.7724 51.5,52C 83.2907,26.8846 119.291,17.3846 159.5,23.5 Z"/></g>
<g><path style="opacity:0.983" fill="#000000" d="M 222.5,148.5 C 225.287,158.181 225.12,167.848 222,177.5C 213.65,192.403 201.15,197.236 184.5,192C 162.359,183.192 146.859,167.692 138,145.5C 131.263,129.615 132.096,114.281 140.5,99.5C 144.262,97.5873 147.929,95.4206 151.5,93C 158.129,91.2593 164.796,91.2593 171.5,93C 197.685,103.02 214.685,121.52 222.5,148.5 Z"/></g>
<g><path style="opacity:0.925" fill="#000000" d="M 117.5,175.5 C 130.291,176.452 135.124,183.118 132,195.5C 127.874,201.97 122.041,204.137 114.5,202C 110.667,200.833 108.167,198.333 107,194.5C 104.454,184.537 107.954,178.204 117.5,175.5 Z"/></g>
<g><path style="opacity:0.622" fill="#181818" d="M 102.5,202.5 C 107.09,207.29 112.756,209.624 119.5,209.5C 124.98,209.058 129.98,207.558 134.5,205C 124.829,213.297 114.829,213.631 104.5,206C 103.177,205.184 102.511,204.017 102.5,202.5 Z"/></g>
</svg>
