<?xml version="1.0" encoding="UTF-8"?>
<!DOCTYPE svg PUBLIC "-//W3C//DTD SVG 1.1//EN" "http://www.w3.org/Graphics/SVG/1.1/DTD/svg11.dtd">
<svg xmlns="http://www.w3.org/2000/svg" version="1.1" width="424px" height="360px" style="shape-rendering:geometricPrecision; text-rendering:geometricPrecision; image-rendering:optimizeQuality; fill-rule:evenodd; clip-rule:evenodd" xmlns:xlink="http://www.w3.org/1999/xlink">
<g><path style="opacity:0.681" fill="#000000" d="M 192.5,13.5 C 193.833,13.5 195.167,13.5 196.5,13.5C 196.657,14.8734 196.49,16.2068 196,17.5C 191.681,20.7775 188.681,24.7775 187,29.5C 190.453,25.853 194.619,24.0197 199.5,24C 200.451,24.7175 200.617,25.5509 200,26.5C 197.766,28.6998 195.266,30.5331 192.5,32C 195.146,32.4974 197.813,32.6641 200.5,32.5C 200.67,33.8221 200.337,34.9887 199.5,36C 196.255,38.5752 192.755,39.4086 189,38.5C 188.316,37.2161 188.483,36.0495 189.5,35C 188.207,34.51 186.873,34.3433 185.5,34.5C 185.649,33.448 185.483,32.448 185,31.5C 183.989,32.3366 182.822,32.67 181.5,32.5C 182.239,24.4376 185.905,18.1042 192.5,13.5 Z"/></g>
<g><path style="opacity:0.624" fill="#000000" d="M 242.5,23.5 C 241.833,23.5 241.5,23.8333 241.5,24.5C 238.585,27.9901 236.418,31.9901 235,36.5C 233.529,35.6195 232.696,34.2861 232.5,32.5C 233.31,23.8744 237.476,17.541 245,13.5C 246.158,13.9981 246.991,14.8315 247.5,16C 246.411,18.9156 244.744,21.4156 242.5,23.5 Z"/></g>
<g><path style="opacity:0.55" fill="#000000" d="M 302.5,31.5 C 299.227,31.5294 298.56,30.1961 300.5,27.5C 300.312,21.5854 297.979,20.2521 293.5,23.5C 291.958,24.3007 290.292,24.634 288.5,24.5C 288.932,21.018 287.599,18.6846 284.5,17.5C 281.29,18.5474 278.456,20.214 276,22.5C 270.457,19.6871 266.957,21.3538 265.5,27.5C 264.5,27.5 263.5,27.5 262.5,27.5C 262.169,20.9876 265.336,17.3209 272,16.5C 273.473,16.9031 274.806,17.5697 276,18.5C 281.93,11.4953 287.263,11.8286 292,19.5C 298.843,15.8375 302.676,17.8375 303.5,25.5C 303.328,27.5477 302.995,29.5477 302.5,31.5 Z"/></g>
<g><path style="opacity:0.67" fill="#000000" d="M 62.5,17.5 C 65.8621,17.0695 68.6954,18.0695 71,20.5C 72.722,18.5559 74.8887,17.5559 77.5,17.5C 81.3438,19.9332 85.3438,21.4332 89.5,22C 95.7977,22.5266 102.131,23.1933 108.5,24C 109.747,25.4936 109.747,26.9936 108.5,28.5C 107.604,27.4937 106.938,27.4937 106.5,28.5C 117.989,31.9099 128.322,37.4099 137.5,45C 140,48.1667 142.5,51.3333 145,54.5C 148.389,51.4674 152.222,50.8007 156.5,52.5C 161.263,59.6748 159.597,65.0081 151.5,68.5C 152.761,72.0613 153.594,75.7279 154,79.5C 159.991,66.8437 166.991,54.8437 175,43.5C 177.039,41.1255 179.372,39.1255 182,37.5C 182.692,38.0253 183.192,38.6919 183.5,39.5C 172.267,56.8992 162.1,74.8992 153,93.5C 152.506,102.154 149.506,109.821 144,116.5C 141.127,126.95 137.961,137.283 134.5,147.5C 134.167,146.5 133.833,145.5 133.5,144.5C 135.08,137.1 136.58,129.767 138,122.5C 132.771,127.402 127.271,131.902 121.5,136C 124.295,152.897 127.462,169.73 131,186.5C 133.996,193.321 136.496,200.321 138.5,207.5C 137.872,209.258 136.872,210.758 135.5,212C 145.746,251.239 159.08,289.406 175.5,326.5C 173.854,329.81 171.52,332.477 168.5,334.5C 169.757,336.679 171.257,338.679 173,340.5C 178.812,329.675 187.645,325.508 199.5,328C 202.671,333.431 201.671,338.098 196.5,342C 191.41,345.642 185.743,347.808 179.5,348.5C 176.66,346.661 173.66,345.994 170.5,346.5C 168.43,342.936 166.597,339.269 165,335.5C 162.263,336.61 159.429,336.777 156.5,336C 149.785,326.744 143.952,316.911 139,306.5C 130.268,286.963 121.935,267.296 114,247.5C 101.716,278.4 87.0495,308.067 70,336.5C 66.1581,341.321 61.8248,341.654 57,337.5C 55.8635,341.243 54.5302,344.91 53,348.5C 44.2411,353.998 34.7411,354.498 24.5,350C 18.7411,345.593 18.0745,340.593 22.5,335C 33.2335,332.075 42.5668,334.575 50.5,342.5C 51.4063,340.614 52.4063,338.78 53.5,337C 51.6641,335.581 49.6641,334.414 47.5,333.5C 46.3036,332.441 45.637,331.107 45.5,329.5C 52.9246,307.807 59.4246,285.807 65,263.5C 68.868,250.885 73.7013,238.719 79.5,227C 75.1308,225.733 71.2975,223.567 68,220.5C 67.51,219.207 67.3433,217.873 67.5,216.5C 72.4078,217.374 76.5745,219.707 80,223.5C 81.5484,222.086 82.215,220.42 82,218.5C 75.488,219.156 70.6546,216.489 67.5,210.5C 67.8076,209.692 68.3076,209.025 69,208.5C 72.8787,210.189 76.712,212.022 80.5,214C 81.7014,214.903 82.5348,216.069 83,217.5C 83.4497,215.481 84.283,213.648 85.5,212C 83.2115,211.178 80.8782,210.511 78.5,210C 76.9929,208.527 76.3262,206.693 76.5,204.5C 79.4942,194.697 81.6608,184.697 83,174.5C 83.6381,164.15 83.4715,153.817 82.5,143.5C 60.4814,142.246 43.3148,132.579 31,114.5C 25.6667,118.5 20.3333,118.5 15,114.5C 13.7399,105.951 17.2399,101.617 25.5,101.5C 23.9395,94.6113 23.1061,87.6113 23,80.5C 21.5,82.8333 20,85.1667 18.5,87.5C 16.8811,83.0048 17.7144,79.0048 21,75.5C 21.3841,67.0712 23.3841,59.0712 27,51.5C 31.0649,49.7671 33.7316,46.7671 35,42.5C 38.5,41 41,38.5 42.5,35C 43.8721,34.5983 45.2054,34.0983 46.5,33.5C 47.6261,31.2069 48.9594,29.0403 50.5,27C 52.5,26.1667 54.5,25.3333 56.5,24.5C 57.8334,21.5067 59.8334,19.1734 62.5,17.5 Z M 75.5,21.5 C 77.1033,21.3118 78.4366,21.8118 79.5,23C 75.9745,28.9667 74.6411,28.4667 75.5,21.5 Z M 62.5,22.5 C 64.9775,22.0508 66.9775,22.7175 68.5,24.5C 67.7868,26.7759 67.2868,29.1093 67,31.5C 66.586,31.9574 66.086,32.2907 65.5,32.5C 64.0021,30.1708 62.0021,28.3375 59.5,27C 60.3862,25.3853 61.3862,23.8853 62.5,22.5 Z M 84.5,24.5 C 85.4971,23.2875 86.4971,23.4542 87.5,25C 86.2805,26.7947 85.2805,26.6281 84.5,24.5 Z M 91.5,25.5 C 94.7973,25.3287 95.1306,25.9954 92.5,27.5C 91.7025,27.0431 91.3691,26.3764 91.5,25.5 Z M 99.5,25.5 C 101.225,25.8425 101.725,26.8425 101,28.5C 99.9614,27.7562 99.4614,26.7562 99.5,25.5 Z M 80.5,26.5 C 81.2891,26.7828 81.9558,27.2828 82.5,28C 81.184,28.5281 80.5173,28.0281 80.5,26.5 Z M 53.5,30.5 C 54.2389,30.369 54.9056,30.5357 55.5,31C 55.0137,33.0266 55.0137,35.1933 55.5,37.5C 49.6616,36.6588 48.9949,34.3255 53.5,30.5 Z M 58.5,31.5 C 60.3675,32.7861 60.5342,34.1195 59,35.5C 58.51,34.2068 58.3433,32.8734 58.5,31.5 Z M 81.5,32.5 C 82.522,33.8917 82.1887,35.225 80.5,36.5C 79.5,36.1667 78.8333,35.5 78.5,34.5C 79.6016,33.8243 80.6016,33.1577 81.5,32.5 Z M 86.5,32.5 C 88.8102,34.2781 88.6436,36.2781 86,38.5C 85.3224,36.4024 85.4891,34.4024 86.5,32.5 Z M 94.5,32.5 C 98.1331,32.443 98.2998,33.443 95,35.5C 94.5172,34.552 94.3505,33.552 94.5,32.5 Z M 142.5,58.5 C 141.325,58.281 140.325,58.6143 139.5,59.5C 142.386,64.6042 144.719,69.9376 146.5,75.5C 147.377,72.1751 147.544,68.8418 147,65.5C 149.576,70.8769 151.076,76.5436 151.5,82.5C 147.912,92.7646 144.412,103.098 141,113.5C 126.862,130.733 108.528,139.4 86,139.5C 65.5614,139.143 48.8947,131.143 36,115.5C 34.5462,112.929 33.3795,110.262 32.5,107.5C 33.5754,108.562 34.5754,108.562 35.5,107.5C 33.2766,102.063 31.9433,96.3966 31.5,90.5C 31.1667,89.8333 30.8333,89.1667 30.5,88.5C 29.5108,92.1073 29.1774,95.774 29.5,99.5C 27.3923,94.0731 27.059,88.4064 28.5,82.5C 31.0157,77.9376 33.5157,73.2709 36,68.5C 36.1922,66.4233 36.6922,64.4233 37.5,62.5C 39.061,63.3473 40.561,63.0139 42,61.5C 42.4217,58.7644 42.4217,56.0977 42,53.5C 47.2485,56.6338 49.9151,54.9671 50,48.5C 53.4933,51.5018 55.9933,50.8351 57.5,46.5C 55.7082,41.8304 56.3749,40.997 59.5,44C 64.822,44.4933 66.822,41.9933 65.5,36.5C 67.8197,37.7242 70.153,39.0575 72.5,40.5C 74.0293,40.4712 75.196,39.8045 76,38.5C 77.2419,39.8721 78.7419,40.8721 80.5,41.5C 82.2559,40.5931 84.0892,40.5931 86,41.5C 89.282,40.885 91.282,38.885 92,35.5C 92.9492,38.1997 94.7825,39.033 97.5,38C 98.7717,36.6932 99.7717,35.1932 100.5,33.5C 112.603,34.7158 123.603,39.2158 133.5,47C 137.503,50.1551 140.503,53.9885 142.5,58.5 Z M 44.5,38.5 C 46.3442,39.2039 46.8442,40.5372 46,42.5C 43.6275,41.6828 43.1275,40.3495 44.5,38.5 Z M 37.5,45.5 C 39.9725,46.7487 40.1391,48.4153 38,50.5C 36.2116,48.9769 36.0449,47.3102 37.5,45.5 Z M 45.5,48.5 C 46.7759,49.3864 46.7759,50.3864 45.5,51.5C 44.4376,50.5754 44.4376,49.5754 45.5,48.5 Z M 32.5,56.5 C 28.8431,56.026 28.6764,54.6926 32,52.5C 32.49,53.7932 32.6567,55.1266 32.5,56.5 Z M 150.5,55.5 C 155.636,57.7742 155.636,60.4408 150.5,63.5C 149.502,61.5101 148.502,59.5101 147.5,57.5C 148.602,56.8243 149.602,56.1577 150.5,55.5 Z M 23.5,105.5 C 24.8221,105.33 25.9887,105.663 27,106.5C 27.813,108.436 28.313,110.436 28.5,112.5C 25.3956,113.841 22.5623,113.507 20,111.5C 19.8683,108.766 21.0349,106.766 23.5,105.5 Z M 115.5,137.5 C 116.693,137.97 117.36,138.97 117.5,140.5C 117.333,141.5 117.167,142.5 117,143.5C 115.989,142.663 114.822,142.33 113.5,142.5C 113.365,140.446 114.032,138.779 115.5,137.5 Z M 106.5,140.5 C 107.833,140.5 109.167,140.5 110.5,140.5C 110.895,147.606 107.561,150.772 100.5,150C 97.7433,148.181 96.7433,145.848 97.5,143C 100.742,142.594 103.742,141.761 106.5,140.5 Z M 85.5,144.5 C 86.209,143.596 87.209,143.263 88.5,143.5C 89.3154,156.819 96.3154,162.652 109.5,161C 115.193,158.643 118.693,154.477 120,148.5C 121.69,168.492 126.524,187.658 134.5,206C 134.355,206.772 134.022,207.439 133.5,208C 130.185,208.941 126.852,209.774 123.5,210.5C 108.991,208.639 94.4915,206.972 80,205.5C 86.3259,185.553 88.1593,165.219 85.5,144.5 Z M 90.5,143.5 C 95.5324,143.332 95.6991,144.332 91,146.5C 90.5172,145.552 90.3505,144.552 90.5,143.5 Z M 113.5,146.5 C 117.788,146.088 118.455,147.755 115.5,151.5C 112.807,150.468 112.14,148.802 113.5,146.5 Z M 93.5,148.5 C 94.3764,148.369 95.0431,148.702 95.5,149.5C 94.8596,152.648 93.8596,152.981 92.5,150.5C 92.8627,149.817 93.1961,149.15 93.5,148.5 Z M 109.5,151.5 C 110.882,152.801 112.548,153.634 114.5,154C 110.627,157.279 108.96,156.446 109.5,151.5 Z M 96.5,152.5 C 100.451,152.718 101.118,154.051 98.5,156.5C 96.8888,155.68 96.2222,154.346 96.5,152.5 Z M 102.5,154.5 C 105.114,154.277 106.781,155.444 107.5,158C 105.5,158.667 103.5,158.667 101.5,158C 102.337,156.989 102.67,155.822 102.5,154.5 Z M 124.5,214.5 C 123.766,215.708 123.433,217.041 123.5,218.5C 126.428,218.148 129.262,217.482 132,216.5C 132.309,217.766 132.809,218.933 133.5,220C 131.833,220.333 130.167,220.667 128.5,221C 127.663,222.011 127.33,223.178 127.5,224.5C 129.861,224.326 132.194,223.993 134.5,223.5C 134.5,224.5 134.5,225.5 134.5,226.5C 133.167,226.5 131.833,226.5 130.5,226.5C 130.759,230.068 132.759,231.401 136.5,230.5C 136.5,231.5 136.5,232.5 136.5,233.5C 134.824,234.183 134.157,235.517 134.5,237.5C 138.887,237.47 139.887,238.97 137.5,242C 138.34,243.767 139.673,245.101 141.5,246C 140.446,247.388 140.28,248.888 141,250.5C 142.333,251.167 143.333,252.167 144,253.5C 147.937,268.145 152.771,282.478 158.5,296.5C 158.062,297.506 157.396,297.506 156.5,296.5C 155.359,298.421 155.192,300.421 156,302.5C 158.579,307.992 161.412,313.325 164.5,318.5C 164.833,318 165.167,317.5 165.5,317C 164.521,314.567 163.855,312.067 163.5,309.5C 166.335,314.514 168.669,319.848 170.5,325.5C 167.432,330.127 163.265,332.127 158,331.5C 142.878,304.583 129.878,276.583 119,247.5C 118,245.167 116.333,243.5 114,242.5C 110.695,245.095 108.361,248.429 107,252.5C 102.942,264.27 98.1082,275.604 92.5,286.5C 93.3379,283.314 94.3379,280.147 95.5,277C 95.1667,276.5 94.8333,276 94.5,275.5C 89.191,283.944 85.3577,292.944 83,302.5C 83.7083,301.619 84.5416,300.953 85.5,300.5C 83.5606,305.09 81.2272,309.423 78.5,313.5C 78.762,312.022 78.4287,310.689 77.5,309.5C 74.6478,312.222 73.4811,315.556 74,319.5C 74.3826,318.944 74.8826,318.611 75.5,318.5C 72.3433,324.814 68.6766,330.814 64.5,336.5C 59.5114,334.999 54.8447,332.999 50.5,330.5C 54.5286,328.913 55.1952,326.413 52.5,323C 53,321.5 53.5,320 54,318.5C 54.6107,322.272 55.6107,322.272 57,318.5C 57.8442,316.537 57.3442,315.204 55.5,314.5C 55.838,312.146 56.338,309.813 57,307.5C 57.2213,310.943 58.2213,311.276 60,308.5C 61.128,306.655 61.628,304.655 61.5,302.5C 60.325,302.719 59.325,302.386 58.5,301.5C 59.2092,298.616 60.2092,295.949 61.5,293.5C 62.3481,288.774 63.5148,284.108 65,279.5C 65.1554,281.856 65.1554,284.189 65,286.5C 67.5343,284.431 68.7009,281.765 68.5,278.5C 67.5,278.5 66.5,278.5 65.5,278.5C 66.1301,274.952 67.1301,271.619 68.5,268.5C 70.2003,261.368 72.3669,254.368 75,247.5C 76.1138,251.299 77.4471,251.299 79,247.5C 79.8625,244.457 79.0291,243.457 76.5,244.5C 77.3012,240.765 78.3012,237.099 79.5,233.5C 83.6246,233.277 84.2912,231.777 81.5,229C 82.6492,227.256 83.9825,227.089 85.5,228.5C 86.812,226.264 86.4787,224.264 84.5,222.5C 86.0453,221.548 87.712,221.215 89.5,221.5C 89.756,219.088 88.756,217.421 86.5,216.5C 88.396,215.534 90.396,215.201 92.5,215.5C 92.5,214.5 92.5,213.5 92.5,212.5C 99.8523,212.155 110.519,212.822 124.5,214.5 Z M 192.5,331.5 C 198.713,332.354 199.046,334.521 193.5,338C 187.769,341.349 181.769,343.682 175.5,345C 179.008,337.646 184.675,333.146 192.5,331.5 Z M 25.5,338.5 C 34.6215,337.484 42.2882,340.317 48.5,347C 41.7506,347.877 35.0839,347.544 28.5,346C 23.8318,344.545 22.8318,342.045 25.5,338.5 Z"/></g>
<g><path style="opacity:0.64" fill="#000000" d="M 259.5,21.5 C 258.833,21.5 258.5,21.8333 258.5,22.5C 253.099,25.2044 248.432,28.871 244.5,33.5C 243.311,34.4287 241.978,34.762 240.5,34.5C 242.71,24.293 249.043,18.6263 259.5,17.5C 259.5,18.8333 259.5,20.1667 259.5,21.5 Z"/></g>
<g><path style="opacity:0.004" fill="#000000" d="M 259.5,21.5 C 260.833,22.1667 260.833,22.1667 259.5,21.5 Z"/></g>
<g><path style="opacity:0.004" fill="#000000" d="M 258.5,22.5 C 258.833,22.5 259.167,22.5 259.5,22.5C 259.315,23.1701 258.981,23.1701 258.5,22.5 Z"/></g>
<g><path style="opacity:0.004" fill="#000000" d="M 242.5,23.5 C 243.833,24.1667 243.833,24.1667 242.5,23.5 Z"/></g>
<g><path style="opacity:0.594" fill="#000000" d="M 302.5,31.5 C 304.292,29.5387 306.458,28.2054 309,27.5C 312.003,27.743 313.17,29.4096 312.5,32.5C 310.876,32.6399 309.71,31.9733 309,30.5C 307.5,32 306,33.5 304.5,35C 308.679,37.1841 313.013,37.8508 317.5,37C 320.258,40.2181 323.591,42.7181 327.5,44.5C 330.162,41.5485 333.162,41.0485 336.5,43C 338.176,46.1262 339.01,49.2928 339,52.5C 340.218,49.4423 342.051,46.7756 344.5,44.5C 343.674,40.6704 341.341,38.6704 337.5,38.5C 334.527,39.0684 331.693,40.0684 329,41.5C 326.853,40.4036 326.353,38.9036 327.5,37C 325.536,36.376 323.869,36.876 322.5,38.5C 320.185,37.5789 320.018,36.2456 322,34.5C 323.648,33.283 325.481,32.4497 327.5,32C 323.826,29.9147 320.493,30.4147 317.5,33.5C 316.334,31.6351 316.667,29.9684 318.5,28.5C 321.603,26.2963 324.937,25.9629 328.5,27.5C 330.117,30.4265 330.95,33.4265 331,36.5C 340.398,31.7909 346.232,34.4576 348.5,44.5C 354.095,42.8759 357.928,44.8759 360,50.5C 360.497,52.8098 360.663,55.1432 360.5,57.5C 367.099,58.0986 370.766,61.7653 371.5,68.5C 371.193,73.2839 369.193,77.1172 365.5,80C 368.723,82.6876 369.223,85.8543 367,89.5C 365.89,91.0368 364.39,91.7035 362.5,91.5C 362.682,89.3254 363.349,87.3254 364.5,85.5C 361.989,80.43 360.323,80.5967 359.5,86C 360.164,90.1445 360.664,94.3112 361,98.5C 364.818,93.7148 368.985,89.2148 373.5,85C 374.448,84.5172 375.448,84.3505 376.5,84.5C 375.977,87.878 374.644,90.878 372.5,93.5C 370.734,95.7706 368.734,97.9373 366.5,100C 368.004,101.491 368.837,103.324 369,105.5C 370.15,102.232 370.984,98.8988 371.5,95.5C 374.734,95.2366 376.068,96.7366 375.5,100C 375.452,102.922 374.452,105.422 372.5,107.5C 370.914,108.148 369.247,108.648 367.5,109C 375.318,115.27 375.318,121.27 367.5,127C 365.833,127.667 364.167,127.667 362.5,127C 364.806,124.939 366.973,122.772 369,120.5C 369.819,114.817 367.319,112.15 361.5,112.5C 363.374,110.066 364.707,107.232 365.5,104C 364.387,102.765 363.387,103.265 362.5,105.5C 360.018,107.503 359.018,110.169 359.5,113.5C 364.336,114.209 365.669,116.875 363.5,121.5C 362.448,121.351 361.448,121.517 360.5,122C 361.125,124.8 361.792,127.634 362.5,130.5C 373.212,124.594 378.045,127.594 377,139.5C 375.204,142.927 373.037,146.094 370.5,149C 379.341,147.752 383.674,151.585 383.5,160.5C 385.167,160.5 386.833,160.5 388.5,160.5C 389.32,164.158 387.987,166.491 384.5,167.5C 388.414,168.772 392.247,170.438 396,172.5C 396.497,175.146 396.664,177.813 396.5,180.5C 399.455,179.841 402.455,179.508 405.5,179.5C 405.657,180.873 405.49,182.207 405,183.5C 401.298,184.181 397.465,184.181 393.5,183.5C 392.863,180.453 392.53,177.453 392.5,174.5C 385.129,174.948 380.962,171.614 380,164.5C 378.893,163.288 378.393,163.621 378.5,165.5C 377.833,165.5 377.5,165.833 377.5,166.5C 374.999,166.511 374.832,167.178 377,168.5C 377.333,170.833 377.667,173.167 378,175.5C 380.52,176.207 383.02,177.04 385.5,178C 386.585,180.172 387.919,182.172 389.5,184C 392.568,185.016 395.568,186.183 398.5,187.5C 391.808,190.436 386.475,188.602 382.5,182C 382.833,181.667 383.167,181.333 383.5,181C 379.394,181.306 376.228,179.806 374,176.5C 370.833,184.333 373.333,187.166 381.5,185C 383.7,189.707 387.367,192.207 392.5,192.5C 392.5,193.5 392.5,194.5 392.5,195.5C 386.278,196.208 381.612,193.874 378.5,188.5C 374.852,189.445 371.685,188.445 369,185.5C 368.667,183.5 368.333,181.5 368,179.5C 363.078,177.995 360.911,174.661 361.5,169.5C 361.542,166.741 362.042,164.075 363,161.5C 363.71,160.027 364.876,159.36 366.5,159.5C 366.808,157.076 366.474,154.743 365.5,152.5C 357.578,156.151 352.745,153.818 351,145.5C 344.722,149.162 338.222,149.496 331.5,146.5C 331.167,145.167 330.833,145.167 330.5,146.5C 325.482,152.19 320.815,158.19 316.5,164.5C 312.091,167.655 310.091,171.988 310.5,177.5C 308.876,177.64 307.71,176.973 307,175.5C 306.416,172.743 306.75,170.077 308,167.5C 312.5,161.667 317,155.833 321.5,150C 314.309,151.43 306.976,152.263 299.5,152.5C 296.183,162.88 297.016,172.88 302,182.5C 305.64,187.887 310.307,188.887 316,185.5C 317.93,187.171 319.93,187.837 322,187.5C 321.914,193.919 319.748,199.586 315.5,204.5C 323.431,215.881 334.264,220.548 348,218.5C 349.043,220.701 349.877,223.034 350.5,225.5C 358.074,221.09 364.907,215.757 371,209.5C 372.603,210.886 373.437,212.719 373.5,215C 372.492,222.817 372.325,230.651 373,238.5C 373.364,241.249 374.697,243.249 377,244.5C 377.945,244.095 378.612,243.428 379,242.5C 379.167,240.833 379.333,239.167 379.5,237.5C 378.351,230.884 376.685,224.384 374.5,218C 375.045,214.987 376.211,214.821 378,217.5C 382.004,224.344 384.504,231.678 385.5,239.5C 385.348,249.406 380.681,252.573 371.5,249C 369.383,247.269 367.883,245.102 367,242.5C 365.335,235.197 365.001,227.863 366,220.5C 361.443,224.362 356.276,227.028 350.5,228.5C 350.278,231.504 349.278,234.171 347.5,236.5C 345.023,238.241 342.356,239.741 339.5,241C 338.782,242.987 337.782,244.821 336.5,246.5C 333.508,247.887 330.675,249.554 328,251.5C 325.918,263.128 319.085,267.628 307.5,265C 303.274,268.86 298.274,271.193 292.5,272C 291.213,273.41 290.046,274.91 289,276.5C 291.979,290.086 297.312,302.753 305,314.5C 305.703,316.929 305.537,319.262 304.5,321.5C 296.325,326.168 290.992,333.002 288.5,342C 289.684,347.183 291.851,347.683 295,343.5C 297.284,336.93 300.118,330.597 303.5,324.5C 304.325,323.614 305.325,323.281 306.5,323.5C 306.185,332.109 303.852,340.109 299.5,347.5C 298.833,347.5 298.5,347.833 298.5,348.5C 297.833,348.5 297.5,348.833 297.5,349.5C 289.307,354.317 284.307,351.984 282.5,342.5C 283.239,337.69 285.073,333.356 288,329.5C 292.08,324.914 296.58,320.914 301.5,317.5C 293.573,306.141 288.239,293.641 285.5,280C 285.645,279.228 285.978,278.561 286.5,278C 278.373,281.569 272.206,279.403 268,271.5C 262.606,260.318 258.606,248.651 256,236.5C 255.5,228.507 255.334,220.507 255.5,212.5C 254.167,212.5 252.833,212.5 251.5,212.5C 251.82,196.913 253.986,181.58 258,166.5C 258.748,164.668 259.748,163.001 261,161.5C 261.131,156.318 262.131,151.318 264,146.5C 264.5,145.333 265.333,144.5 266.5,144C 252.717,136.551 241.884,126.051 234,112.5C 234.913,125.158 237.579,137.491 242,149.5C 245.868,157.896 249.701,166.23 253.5,174.5C 252.178,174.67 251.011,174.337 250,173.5C 228.107,134.585 221.774,93.2521 231,49.5C 232.161,45.1698 234.327,41.5032 237.5,38.5C 237.833,39.3333 238.167,40.1667 238.5,41C 235.95,48.6873 234.45,56.5206 234,64.5C 237.23,58.27 241.563,52.9367 247,48.5C 247.596,44.5942 249.43,41.4275 252.5,39C 256.762,37.295 260.762,35.1283 264.5,32.5C 269.507,23.5937 276.84,21.0937 286.5,25C 291.571,26.2357 293.571,29.4024 292.5,34.5C 295.572,34.8174 298.572,34.4841 301.5,33.5C 301.863,32.8165 302.196,32.1499 302.5,31.5 Z M 267.5,36.5 C 268.92,31.235 272.254,28.4016 277.5,28C 275.078,29.888 275.078,31.888 277.5,34C 274.39,35.5244 271.056,36.3577 267.5,36.5 Z M 284.5,33.5 C 285.413,31.9139 285.413,30.4139 284.5,29C 287.838,28.4997 289.505,29.9997 289.5,33.5C 287.833,33.5 286.167,33.5 284.5,33.5 Z M 280.5,29.5 C 281.773,30.0768 281.773,30.7435 280.5,31.5C 279.537,31.0302 279.537,30.3635 280.5,29.5 Z M 283.5,37.5 C 288.6,37.4657 288.766,38.1323 284,39.5C 283.167,39.3333 282.333,39.1667 281.5,39C 282.416,38.7216 283.082,38.2216 283.5,37.5 Z M 276.5,39.5 C 276.673,43.1704 275.007,45.6704 271.5,47C 267.389,47.465 263.389,46.965 259.5,45.5C 259.561,47.5922 260.561,49.0922 262.5,50C 270.991,53.1698 277.157,50.6698 281,42.5C 282.388,43.5536 283.888,43.7203 285.5,43C 287.568,41.0027 289.735,39.1693 292,37.5C 294.589,37.8508 297.089,38.5175 299.5,39.5C 298.12,47.1846 301.454,51.3513 309.5,52C 308.939,53.5655 309.606,54.8989 311.5,56C 313.459,56.9309 315.459,57.7643 317.5,58.5C 318.638,64.6389 322.305,67.9722 328.5,68.5C 328.472,70.5824 329.139,72.4157 330.5,74C 334.907,75.3655 339.074,77.1989 343,79.5C 342.22,86.3819 345.22,90.3819 352,91.5C 353.987,90.8464 355.32,89.513 356,87.5C 357.015,91.4402 357.515,95.4402 357.5,99.5C 358.552,99.3505 359.552,99.5172 360.5,100C 347.338,114.17 335.505,129.337 325,145.5C 294.391,152.856 268.057,145.189 246,122.5C 226.199,95.9442 228.365,71.4442 252.5,49C 256.087,46.4167 259.92,44.25 264,42.5C 269.21,45.2548 273.377,44.2548 276.5,39.5 Z M 302.5,39.5 C 304.927,39.523 307.26,40.023 309.5,41C 308.286,43.3506 307.452,45.8506 307,48.5C 303.394,46.6218 301.894,43.6218 302.5,39.5 Z M 312.5,42.5 C 313.675,42.281 314.675,42.6143 315.5,43.5C 311.898,49.139 310.898,48.8057 312.5,42.5 Z M 319.5,44.5 C 321.977,46.2413 324.644,47.7413 327.5,49C 327.721,50.7985 328.054,52.6318 328.5,54.5C 330.403,56.5623 332.737,57.8956 335.5,58.5C 332.371,59.3889 330.038,61.2222 328.5,64C 324.631,64.5603 322.298,62.8936 321.5,59C 325.48,57.5859 327.146,54.7526 326.5,50.5C 323.121,50.8533 320.121,52.1866 317.5,54.5C 316.062,54.2811 314.729,53.7811 313.5,53C 312.549,52.2825 312.383,51.4491 313,50.5C 315.664,49.0016 317.83,47.0016 319.5,44.5 Z M 334.5,48.5 C 333.027,47.928 331.693,47.0946 330.5,46C 331,45.5 331.5,45 332,44.5C 333.706,45.3079 334.539,46.6412 334.5,48.5 Z M 349.5,61.5 C 353.597,58.1694 353.43,55.1694 349,52.5C 344.867,54.0388 344.701,55.7055 348.5,57.5C 347.754,58.7362 347.421,60.0695 347.5,61.5C 345.529,59.1918 343.529,56.8585 341.5,54.5C 345.239,53.9303 347.572,51.7636 348.5,48C 355.194,46.824 357.694,49.6573 356,56.5C 355.119,59.885 352.952,61.5517 349.5,61.5 Z M 331.5,52.5 C 332.756,52.4614 333.756,52.9614 334.5,54C 333.002,54.5847 332.002,54.0847 331.5,52.5 Z M 341.5,61.5 C 339.554,60.7456 338.721,59.4122 339,57.5C 340.481,58.4709 341.315,59.8042 341.5,61.5 Z M 360.5,60.5 C 364.516,61.3252 366.849,63.8252 367.5,68C 366.255,71.9918 364.589,75.8252 362.5,79.5C 361.808,76.8366 360.808,74.3366 359.5,72C 361.139,68.194 360.472,64.8607 357.5,62C 358.737,61.7679 359.737,61.2679 360.5,60.5 Z M 347.5,61.5 C 348.167,61.5 348.833,61.5 349.5,61.5C 349.214,63.9327 348.548,63.9327 347.5,61.5 Z M 336.5,62.5 C 339.166,66.2573 342.666,67.5906 347,66.5C 350.365,72.5664 353.199,78.8997 355.5,85.5C 353.295,88.0531 350.962,88.0531 348.5,85.5C 347.491,82.5274 347.491,79.5274 348.5,76.5C 347.022,76.762 345.689,76.4287 344.5,75.5C 346.086,73.8273 346.753,71.8273 346.5,69.5C 344.319,69.2837 342.653,70.117 341.5,72C 339.167,72.6667 336.833,72.6667 334.5,72C 331.85,69.3222 332.35,67.1556 336,65.5C 336.483,64.552 336.649,63.552 336.5,62.5 Z M 349.5,65.5 C 354.82,63.0798 356.987,64.7465 356,70.5C 355.586,70.9574 355.086,71.2907 354.5,71.5C 352.815,69.4293 351.148,67.4293 349.5,65.5 Z M 354.5,115.5 C 354.5,116.5 354.5,117.5 354.5,118.5C 353.5,118.5 352.5,118.5 351.5,118.5C 352.167,117.167 353.167,116.167 354.5,115.5 Z M 358.5,115.5 C 360.377,116.659 360.877,118.326 360,120.5C 359.25,119.874 358.416,119.374 357.5,119C 358.337,117.989 358.67,116.822 358.5,115.5 Z M 341.5,131.5 C 343.448,128.379 345.615,125.379 348,122.5C 350.953,122.422 353.953,122.755 357,123.5C 357.771,128.281 355.771,131.281 351,132.5C 348.916,131.231 346.749,130.231 344.5,129.5C 345.125,132.97 344.125,135.804 341.5,138C 339.083,139.626 336.583,141.126 334,142.5C 335.466,138.267 337.966,134.6 341.5,131.5 Z M 273.5,124.5 C 279.084,127.565 285.084,129.398 291.5,130C 285.167,133.333 278.833,133.333 272.5,130C 273.406,128.301 273.739,126.467 273.5,124.5 Z M 366.5,131.5 C 367.172,136.353 366.006,141.019 363,145.5C 360.699,148.934 357.866,149.767 354.5,148C 356.394,140.944 360.394,135.444 366.5,131.5 Z M 367.5,146.5 C 369.881,141.802 370.881,136.802 370.5,131.5C 371.5,131.5 372.5,131.5 373.5,131.5C 373.963,137.563 371.963,142.563 367.5,146.5 Z M 354.5,135.5 C 355.239,135.369 355.906,135.536 356.5,136C 353.537,137.961 350.871,140.294 348.5,143C 344.961,144.504 341.295,144.837 337.5,144C 340.377,142.873 343.377,142.206 346.5,142C 349.689,141.019 350.022,139.686 347.5,138C 347.833,137.667 348.167,137.333 348.5,137C 350.708,136.809 352.708,136.309 354.5,135.5 Z M 268.5,147.5 C 268.517,145.972 269.184,145.472 270.5,146C 269.956,146.717 269.289,147.217 268.5,147.5 Z M 272.5,146.5 C 275.628,148.154 278.961,149.321 282.5,150C 275.213,159.627 271.88,158.46 272.5,146.5 Z M 266.5,152.5 C 266.843,150.775 267.843,150.275 269.5,151C 268.473,151.513 267.473,152.013 266.5,152.5 Z M 281.5,158.5 C 282.167,158.5 282.833,158.5 283.5,158.5C 283.343,157.127 283.51,155.793 284,154.5C 285.156,155.993 285.99,155.826 286.5,154C 285.06,151.993 285.727,151.159 288.5,151.5C 289.5,151.667 290.5,151.833 291.5,152C 289.301,157.214 285.801,161.381 281,164.5C 280.308,163.975 279.808,163.308 279.5,162.5C 280.853,161.476 281.52,160.143 281.5,158.5 Z M 370.5,151.5 C 376.704,151.629 379.537,154.629 379,160.5C 376.095,157.807 373.429,158.14 371,161.5C 369.18,158.247 369.013,154.913 370.5,151.5 Z M 266.5,152.5 C 266.881,153.931 267.881,154.764 269.5,155C 265.629,158.323 264.629,157.489 266.5,152.5 Z M 292.5,157.5 C 292.808,159.924 292.474,162.257 291.5,164.5C 288.36,166.406 285.027,167.74 281.5,168.5C 286.167,165.833 289.833,162.167 292.5,157.5 Z M 281.5,168.5 C 281.5,169.5 281.5,170.5 281.5,171.5C 285.803,172.204 289.303,170.87 292,167.5C 292.5,168.5 293,169.5 293.5,170.5C 290.097,171.347 287.097,172.847 284.5,175C 285.009,176.169 285.842,177.002 287,177.5C 288.78,176.361 290.614,175.361 292.5,174.5C 292.833,175.833 293.167,175.833 293.5,174.5C 294.267,175.172 294.934,176.005 295.5,177C 291.452,177.165 288.785,178.998 287.5,182.5C 290.518,182.494 293.184,181.494 295.5,179.5C 296.521,180.002 296.688,180.668 296,181.5C 294.197,182.313 292.697,183.48 291.5,185C 292.009,186.169 292.842,187.002 294,187.5C 295.713,186.122 297.047,184.455 298,182.5C 298.318,184.061 299.151,185.228 300.5,186C 298.139,186.197 296.472,187.364 295.5,189.5C 297.841,190.712 300.007,190.378 302,188.5C 303.836,190.131 303.336,190.798 300.5,190.5C 300.5,191.833 300.5,193.167 300.5,194.5C 304.522,192.681 308.856,191.347 313.5,190.5C 314.622,191.63 315.956,192.297 317.5,192.5C 313.46,205.248 306.627,206.914 297,197.5C 294.76,198.036 292.927,199.203 291.5,201C 289.82,201.034 288.32,201.201 287,201.5C 286.837,203.731 288.003,205.065 290.5,205.5C 291.183,205.137 291.85,204.804 292.5,204.5C 292.25,205.922 291.417,206.922 290,207.5C 286.119,203.659 281.619,202.659 276.5,204.5C 276.38,203.414 275.713,202.747 274.5,202.5C 272.523,203.46 270.523,204.46 268.5,205.5C 267.167,204.833 265.833,204.167 264.5,203.5C 263.702,203.957 263.369,204.624 263.5,205.5C 260.552,205.676 257.886,205.676 255.5,205.5C 256.422,198.867 257.255,192.2 258,185.5C 258.219,186.938 258.719,188.271 259.5,189.5C 261.49,184.248 262.157,178.914 261.5,173.5C 260.808,174.025 260.308,174.692 260,175.5C 259.833,175 259.667,174.5 259.5,174C 260.816,169.89 261.816,165.724 262.5,161.5C 265.179,161.327 267.513,160.327 269.5,158.5C 271.173,160.086 273.173,160.753 275.5,160.5C 276.092,163.127 276.425,165.794 276.5,168.5C 278.167,168.5 279.833,168.5 281.5,168.5 Z M 366.5,160.5 C 368.156,163.789 370.323,166.789 373,169.5C 373.667,171.5 373.667,173.5 373,175.5C 371.355,175.307 369.521,175.14 367.5,175C 367,174.5 366.5,174 366,173.5C 365.371,169.129 365.537,164.796 366.5,160.5 Z M 308.5,213.5 C 308.196,214.15 307.863,214.817 307.5,215.5C 309.743,216.474 312.076,216.808 314.5,216.5C 313.095,218.453 313.761,219.453 316.5,219.5C 318.924,219.852 320.424,218.852 321,216.5C 328.419,221.232 336.585,223.565 345.5,223.5C 345.665,226.518 345.498,229.518 345,232.5C 341.974,235.026 338.807,237.36 335.5,239.5C 334.756,240.991 334.09,242.491 333.5,244C 329.434,244.623 326.101,246.456 323.5,249.5C 323.401,259.48 318.901,262.813 310,259.5C 305.99,260.843 302.49,263.009 299.5,266C 296.064,266.692 292.73,267.692 289.5,269C 288.833,271 287.5,272.333 285.5,273C 283,273.5 280.5,274 278,274.5C 276.11,274.215 274.777,273.215 274,271.5C 265.004,255.849 260.504,239.016 260.5,221C 260.833,217.167 261.167,213.333 261.5,209.5C 263.63,211.898 266.297,213.232 269.5,213.5C 273.172,211.362 277.005,209.362 281,207.5C 283.149,207.658 284.983,208.492 286.5,210C 288.833,210.667 291.167,210.667 293.5,210C 294.727,207.271 296.727,205.438 299.5,204.5C 303.177,206.653 307.177,207.986 311.5,208.5C 309.187,209.273 306.854,209.94 304.5,210.5C 303.614,211.325 303.281,212.325 303.5,213.5C 305.167,213.5 306.833,213.5 308.5,213.5 Z M 272.5,207.5 C 271.341,209.377 269.674,209.877 267.5,209C 269.154,208.392 270.821,207.892 272.5,207.5 Z M 315.5,213.5 C 313.167,213.5 310.833,213.5 308.5,213.5C 310.091,212.781 311.591,211.781 313,210.5C 314.045,211.373 314.878,212.373 315.5,213.5 Z M 315.5,213.5 C 319.32,214.852 318.986,215.852 314.5,216.5C 315.11,215.609 315.443,214.609 315.5,213.5 Z"/></g>
<g><path style="opacity:0.004" fill="#000000" d="M 293.5,23.5 C 294.833,24.1667 294.833,24.1667 293.5,23.5 Z"/></g>
<g><path style="opacity:0.004" fill="#000000" d="M 241.5,24.5 C 241.833,24.5 242.167,24.5 242.5,24.5C 242.315,25.1701 241.981,25.1701 241.5,24.5 Z"/></g>
<g><path style="opacity:0.657" fill="#000000" d="M 258.5,27.5 C 262.343,27.1908 263.676,28.6908 262.5,32C 256.583,34.7949 250.583,37.2949 244.5,39.5C 244.642,36.383 245.976,33.883 248.5,32C 251.703,29.9971 255.036,28.4971 258.5,27.5 Z"/></g>
<g><path style="opacity:0.365" fill="#000000" d="M 349.5,61.5 C 348.833,61.5 348.167,61.5 347.5,61.5C 347.421,60.0695 347.754,58.7362 348.5,57.5C 344.701,55.7055 344.867,54.0388 349,52.5C 353.43,55.1694 353.597,58.1694 349.5,61.5 Z"/></g>
<g><path style="opacity:0.708" fill="#000000" d="M 95.5,55.5 C 97.3109,55.572 98.6443,56.4053 99.5,58C 100.751,61.0468 100.751,64.0468 99.5,67C 93.8646,66.4878 92.0313,63.3211 94,57.5C 94.7172,56.9558 95.2172,56.2891 95.5,55.5 Z"/></g>
<g><path style="opacity:0.37" fill="#000000" d="M 245.5,59.5 C 247.225,59.8425 247.725,60.8425 247,62.5C 243.586,66.9936 240.419,71.6603 237.5,76.5C 236.386,75.277 236.219,73.9437 237,72.5C 239.269,67.7436 242.103,63.4102 245.5,59.5 Z"/></g>
<g><path style="opacity:0.566" fill="#000000" d="M 272.5,59.5 C 278.057,58.8875 281.057,61.3875 281.5,67C 281.523,71.2762 279.69,72.7762 276,71.5C 276.438,68.9402 276.271,66.4402 275.5,64C 272.953,64.3393 270.453,65.1726 268,66.5C 267.5,66.1667 267,65.8333 266.5,65.5C 268.215,63.1182 270.215,61.1182 272.5,59.5 Z"/></g>
<g><path style="opacity:0.665" fill="#000000" d="M 379.5,75.5 C 378.035,76.4057 377.035,77.739 376.5,79.5C 375.675,80.3857 374.675,80.719 373.5,80.5C 374.252,70.742 379.586,65.0753 389.5,63.5C 393.039,64.6345 393.372,66.4679 390.5,69C 386.229,70.3459 382.562,72.5125 379.5,75.5 Z"/></g>
<g><path style="opacity:0.689" fill="#000000" d="M 63.5,66.5 C 66.3882,66.2196 67.8882,67.5529 68,70.5C 69.0346,73.6489 68.3679,76.3156 66,78.5C 61.6862,75.243 60.8529,71.243 63.5,66.5 Z"/></g>
<g><path style="opacity:0.614" fill="#000000" d="M 124.5,69.5 C 127.094,71.7287 126.76,73.8954 123.5,76C 130.487,96.3684 124.487,111.702 105.5,122C 87.4217,129.057 72.255,125.224 60,110.5C 58.4725,107.583 57.1392,104.583 56,101.5C 54.3005,102.406 52.4672,102.739 50.5,102.5C 50.33,101.178 50.6634,100.011 51.5,99C 53.8713,98.2652 56.2046,97.4318 58.5,96.5C 62.1921,112.462 72.3588,120.796 89,121.5C 109.416,120.055 120.916,109.221 123.5,89C 123.119,85.14 122.119,81.4733 120.5,78C 119.207,77.51 117.873,77.3433 116.5,77.5C 116.5,76.1667 116.5,74.8333 116.5,73.5C 119.754,73.2064 122.421,71.873 124.5,69.5 Z"/></g>
<g><path style="opacity:0.61" fill="#000000" d="M 382.5,82.5 C 381.167,82.5 379.833,82.5 378.5,82.5C 378.297,80.6096 378.963,79.1096 380.5,78C 386.15,74.2667 392.15,73.2667 398.5,75C 399.833,76 399.833,77 398.5,78C 392.885,78.9771 387.551,80.4771 382.5,82.5 Z"/></g>
<g><path style="opacity:0.004" fill="#000000" d="M 379.5,75.5 C 380.833,76.1667 380.833,76.1667 379.5,75.5 Z"/></g>
<g><path style="opacity:0.59" fill="#000000" d="M 85.5,76.5 C 92.169,76.0049 95.3356,79.0049 95,85.5C 88.98,79.4765 84.48,80.4765 81.5,88.5C 79.3115,83.1755 80.6448,79.1755 85.5,76.5 Z"/></g>
<g><path style="opacity:0.692" fill="#000000" d="M 382.5,82.5 C 386.456,81.606 390.456,81.7727 394.5,83C 397.003,84.7839 397.003,86.4506 394.5,88C 389.511,88.4993 384.511,88.6659 379.5,88.5C 379.028,85.6421 380.028,83.6421 382.5,82.5 Z"/></g>
<g><path style="opacity:0.474" fill="#000000" d="M 287.5,87.5 C 293.731,87.6209 295.731,90.6209 293.5,96.5C 292.05,95.3446 291.05,93.8446 290.5,92C 284.301,93.2865 283.301,91.7865 287.5,87.5 Z"/></g>
<g><path style="opacity:0.552" fill="#000000" d="M 321.5,87.5 C 329.697,86.8526 332.364,90.5192 329.5,98.5C 327.994,99.7472 326.494,99.7472 325,98.5C 324.996,96.6316 325.496,94.7983 326.5,93C 326.355,92.228 326.022,91.5613 325.5,91C 323.325,91.049 321.158,91.549 319,92.5C 318.5,92.1667 318,91.8333 317.5,91.5C 318.549,89.7844 319.882,88.4511 321.5,87.5 Z"/></g>
<g><path style="opacity:0.56" fill="#000000" d="M 32.5,107.5 C 32.6716,106.508 32.3382,105.842 31.5,105.5C 31.6716,104.508 31.3382,103.842 30.5,103.5C 30.7678,101.901 30.4345,100.568 29.5,99.5C 29.1774,95.774 29.5108,92.1073 30.5,88.5C 30.8333,89.1667 31.1667,89.8333 31.5,90.5C 31.9433,96.3966 33.2766,102.063 35.5,107.5C 34.5754,108.562 33.5754,108.562 32.5,107.5 Z"/></g>
<g><path style="opacity:0.59" fill="#000000" d="M 296.5,130.5 C 295.167,131.167 294.167,132.167 293.5,133.5C 284.484,137.916 275.817,137.249 267.5,131.5C 266.614,130.675 266.281,129.675 266.5,128.5C 267.822,128.33 268.989,128.663 270,129.5C 270.652,126.406 270.318,123.406 269,120.5C 260.764,111.822 259.431,102.155 265,91.5C 265.944,92.263 266.444,93.263 266.5,94.5C 264.449,112.279 272.282,122.279 290,124.5C 300.18,124.326 308.346,120.326 314.5,112.5C 316.756,113.421 317.756,115.088 317.5,117.5C 314.213,118.264 311.546,120.097 309.5,123C 305.072,125.541 300.738,128.041 296.5,130.5 Z M 273.5,124.5 C 273.739,126.467 273.406,128.301 272.5,130C 278.833,133.333 285.167,133.333 291.5,130C 285.084,129.398 279.084,127.565 273.5,124.5 Z"/></g>
<g><path style="opacity:0.004" fill="#000000" d="M 372.5,93.5 C 373.833,94.1667 373.833,94.1667 372.5,93.5 Z"/></g>
<g><path style="opacity:0.004" fill="#000000" d="M 362.5,105.5 C 363.833,106.167 363.833,106.167 362.5,105.5 Z"/></g>
<g><path style="opacity:0.004" fill="#000000" d="M 372.5,107.5 C 373.833,108.167 373.833,108.167 372.5,107.5 Z"/></g>
<g><path style="opacity:0.348" fill="#000000" d="M 39.5,113.5 C 41.8122,115.146 43.8122,117.146 45.5,119.5C 41.3822,120.054 39.3822,118.054 39.5,113.5 Z"/></g>
<g><path style="opacity:0.004" fill="#000000" d="M 363.5,121.5 C 364.833,122.167 364.833,122.167 363.5,121.5 Z"/></g>
<g><path style="opacity:0.558" fill="#000000" d="M 409.5,140.5 C 408.262,141.412 406.928,141.579 405.5,141C 404.793,138.48 403.96,135.98 403,133.5C 401.301,132.594 399.467,132.261 397.5,132.5C 399.571,136.454 398.571,139.287 394.5,141C 399.11,140.968 402.444,142.968 404.5,147C 411.266,149.034 414.099,153.534 413,160.5C 408.844,163.567 407.678,162.734 409.5,158C 409.812,154.785 408.478,152.618 405.5,151.5C 404.705,153.495 404.039,155.495 403.5,157.5C 402.833,157.5 402.5,157.833 402.5,158.5C 401.391,158.557 400.391,158.89 399.5,159.5C 403.955,161.624 405.621,165.291 404.5,170.5C 410.555,170.052 412.721,172.719 411,178.5C 409.989,179.337 408.822,179.67 407.5,179.5C 407.286,177.856 407.62,176.356 408.5,175C 405.518,174.502 402.518,174.335 399.5,174.5C 400.221,171.183 400.388,167.849 400,164.5C 398.455,163.179 397.289,163.512 396.5,165.5C 394.955,166.452 393.288,166.785 391.5,166.5C 391.586,164.323 392.253,162.323 393.5,160.5C 392.846,158.885 392.346,157.218 392,155.5C 389.246,153.873 386.412,152.373 383.5,151C 384.354,149.978 385.354,149.145 386.5,148.5C 389.877,149.271 392.711,150.938 395,153.5C 396.167,151 398,149.167 400.5,148C 398.9,146.185 396.9,145.018 394.5,144.5C 390.272,145.342 386.106,146.342 382,147.5C 379.226,145.754 379.726,144.254 383.5,143C 386.818,142.121 390.152,141.287 393.5,140.5C 391.467,138.548 391.134,136.382 392.5,134C 390.833,133.333 389.167,133.333 387.5,134C 384.566,136.461 381.566,138.627 378.5,140.5C 380.088,131.782 385.254,128.449 394,130.5C 401.163,126.911 406.163,128.911 409,136.5C 414.347,134.85 415.68,136.516 413,141.5C 411.959,139.689 410.793,139.355 409.5,140.5 Z M 399.5,152.5 C 400.773,153.077 400.773,153.743 399.5,154.5C 398.537,154.03 398.537,153.363 399.5,152.5 Z M 399.5,159.5 C 397.645,159.728 396.812,159.061 397,157.5C 397.995,158.066 398.828,158.733 399.5,159.5 Z"/></g>
<g><path style="opacity:0.004" fill="#000000" d="M 409.5,140.5 C 410.833,141.167 410.833,141.167 409.5,140.5 Z"/></g>
<g><path style="opacity:0.004" fill="#000000" d="M 330.5,146.5 C 330.833,146.5 331.167,146.5 331.5,146.5C 331.315,147.17 330.981,147.17 330.5,146.5 Z"/></g>
<g><path style="opacity:0.67" fill="#000000" d="M 77.5,152.5 C 79.4646,152.948 79.7979,153.948 78.5,155.5C 66.1539,162.003 54.4872,169.503 43.5,178C 40.77,180.13 38.77,182.797 37.5,186C 44.1804,195.019 52.5137,202.186 62.5,207.5C 63.9501,208.85 64.6168,210.516 64.5,212.5C 62.0733,212.477 59.74,211.977 57.5,211C 48.45,205.949 40.6167,199.449 34,191.5C 31.8898,184.801 33.7231,179.301 39.5,175C 51.3136,166.011 63.9803,158.511 77.5,152.5 Z"/></g>
<g><path style="opacity:0.004" fill="#000000" d="M 403.5,157.5 C 404.833,158.167 404.833,158.167 403.5,157.5 Z"/></g>
<g><path style="opacity:0.004" fill="#000000" d="M 402.5,158.5 C 402.833,158.5 403.167,158.5 403.5,158.5C 403.315,159.17 402.981,159.17 402.5,158.5 Z"/></g>
<g><path style="opacity:0.555" fill="#000000" d="M 88.5,161.5 C 89.1641,163.978 89.4975,166.645 89.5,169.5C 89.6218,172.691 89.1218,175.691 88,178.5C 87.2153,172.751 87.3819,167.084 88.5,161.5 Z"/></g>
<g><path style="opacity:0.527" fill="#000000" d="M 118.5,162.5 C 120.465,162.948 120.798,163.948 119.5,165.5C 111.064,172.373 102.064,173.206 92.5,168C 91.269,166.817 91.269,165.651 92.5,164.5C 101.649,168.94 110.316,168.273 118.5,162.5 Z"/></g>
<g><path style="opacity:0.004" fill="#000000" d="M 316.5,164.5 C 317.833,165.167 317.833,165.167 316.5,164.5 Z"/></g>
<g><path style="opacity:0.004" fill="#000000" d="M 378.5,165.5 C 379.833,166.167 379.833,166.167 378.5,165.5 Z"/></g>
<g><path style="opacity:0.004" fill="#000000" d="M 377.5,166.5 C 377.833,166.5 378.167,166.5 378.5,166.5C 378.315,167.17 377.981,167.17 377.5,166.5 Z"/></g>
<g><path style="opacity:0.004" fill="#000000" d="M 253.5,174.5 C 254.833,175.167 254.833,175.167 253.5,174.5 Z"/></g>
<g><path style="opacity:0.485" fill="#000000" d="M 92.5,175.5 C 101.957,180.731 111.457,180.731 121,175.5C 121.561,178.298 120.394,180.131 117.5,181C 109.065,183.614 101.065,182.781 93.5,178.5C 92.6143,177.675 92.281,176.675 92.5,175.5 Z"/></g>
<g><path style="opacity:0.454" fill="#000000" d="M 85.5,186.5 C 87.9219,189.208 87.9219,192.208 85.5,195.5C 84.9315,192.588 84.9315,189.588 85.5,186.5 Z"/></g>
<g><path style="opacity:0.493" fill="#000000" d="M 90.5,186.5 C 95.4222,188.689 100.589,190.022 106,190.5C 111.667,189.875 117.167,188.542 122.5,186.5C 123.167,186.833 123.833,187.167 124.5,187.5C 123.636,189.197 122.303,190.363 120.5,191C 110.412,194.705 100.579,194.205 91,189.5C 90.5172,188.552 90.3505,187.552 90.5,186.5 Z"/></g>
<g><path style="opacity:0.393" fill="#000000" d="M 306.5,192.5 C 307.833,192.5 309.167,192.5 310.5,192.5C 310.5,193.5 310.5,194.5 310.5,195.5C 309.167,195.5 307.833,195.5 306.5,195.5C 306.5,194.5 306.5,193.5 306.5,192.5 Z"/></g>
<g><path style="opacity:0.498" fill="#000000" d="M 87.5,197.5 C 101.054,202.368 114.721,202.701 128.5,198.5C 128.863,200.911 127.863,202.411 125.5,203C 112.757,206.951 100.424,205.951 88.5,200C 87.7476,199.329 87.4142,198.496 87.5,197.5 Z"/></g>
<g><path style="opacity:0.452" fill="#000000" d="M 308.5,213.5 C 310.833,213.5 313.167,213.5 315.5,213.5C 315.443,214.609 315.11,215.609 314.5,216.5C 312.076,216.808 309.743,216.474 307.5,215.5C 307.863,214.817 308.196,214.15 308.5,213.5 Z"/></g>
<g><path style="opacity:0.533" fill="#000000" d="M 266.5,216.5 C 267.931,216.881 268.764,217.881 269,219.5C 271.237,236.299 277.57,251.299 288,264.5C 288.749,265.635 288.583,266.635 287.5,267.5C 272.087,253.921 265.087,236.921 266.5,216.5 Z"/></g>
<g><path style="opacity:0.52" fill="#000000" d="M 272.5,216.5 C 273.675,216.281 274.675,216.614 275.5,217.5C 280.466,233.445 288.966,247.111 301,258.5C 301.591,259.483 301.257,260.15 300,260.5C 284.506,249.856 275.339,235.189 272.5,216.5 Z"/></g>
<g><path style="opacity:0.509" fill="#000000" d="M 281.5,218.5 C 282.675,218.281 283.675,218.614 284.5,219.5C 291.221,233.392 300.721,245.058 313,254.5C 313.688,255.332 313.521,255.998 312.5,256.5C 299.757,248.924 289.924,238.591 283,225.5C 282.023,223.26 281.523,220.927 281.5,218.5 Z"/></g>
<g><path style="opacity:0.578" fill="#000000" d="M 65.5,221.5 C 69.5038,223.163 71.8372,226.163 72.5,230.5C 69.3864,229.909 66.8864,228.242 65,225.5C 64.4209,224.072 64.5876,222.738 65.5,221.5 Z"/></g>
<g><path style="opacity:0.463" fill="#000000" d="M 315.5,221.5 C 316.873,221.343 318.207,221.51 319.5,222C 326.158,225.481 332.824,228.647 339.5,231.5C 331.142,231.828 323.476,229.495 316.5,224.5C 315.614,223.675 315.281,222.675 315.5,221.5 Z"/></g>
<g><path style="opacity:0.506" fill="#000000" d="M 323.5,249.5 C 309.678,244.675 299.678,235.675 293.5,222.5C 294.552,222.351 295.552,222.517 296.5,223C 303.745,232.412 312.412,240.245 322.5,246.5C 323.386,247.325 323.719,248.325 323.5,249.5 Z"/></g>
<g><path style="opacity:0.503" fill="#000000" d="M 308.5,224.5 C 316.444,229.478 324.444,234.478 332.5,239.5C 328.228,240.477 324.228,239.643 320.5,237C 316.4,234.533 312.566,231.699 309,228.5C 308.51,227.207 308.343,225.873 308.5,224.5 Z"/></g>
<g><path style="opacity:0.004" fill="#000000" d="M 347.5,236.5 C 348.833,237.167 348.833,237.167 347.5,236.5 Z"/></g>
<g><path style="opacity:0.384" fill="#000000" d="M 73.5,255.5 C 76.0567,257.404 75.8901,259.404 73,261.5C 72.3224,259.402 72.4891,257.402 73.5,255.5 Z"/></g>
<g><path style="opacity:0.404" fill="#000000" d="M 68.5,268.5 C 69.3149,267.571 70.1482,266.571 71,265.5C 72.7533,268.41 72.2533,271.076 69.5,273.5C 68.5481,271.955 68.2148,270.288 68.5,268.5 Z"/></g>
<g><path style="opacity:0.483" fill="#000000" d="M 92.5,286.5 C 91.6618,286.842 91.3284,287.508 91.5,288.5C 90.6618,288.842 90.3284,289.508 90.5,290.5C 89.6618,290.842 89.3284,291.508 89.5,292.5C 88.6618,292.842 88.3284,293.508 88.5,294.5C 87.6618,294.842 87.3284,295.508 87.5,296.5C 86.6618,296.842 86.3284,297.508 86.5,298.5C 85.6618,298.842 85.3284,299.508 85.5,300.5C 84.5416,300.953 83.7083,301.619 83,302.5C 85.3577,292.944 89.191,283.944 94.5,275.5C 94.8333,276 95.1667,276.5 95.5,277C 94.3379,280.147 93.3379,283.314 92.5,286.5 Z"/></g>
<g><path style="opacity:0.43" fill="#000000" d="M 61.5,293.5 C 62.4674,292.194 63.8007,291.527 65.5,291.5C 65.3274,294.179 64.3274,296.513 62.5,298.5C 61.5481,296.955 61.2148,295.288 61.5,293.5 Z"/></g>
<g><path style="opacity:0.004" fill="#000000" d="M 304.5,321.5 C 305.833,322.167 305.833,322.167 304.5,321.5 Z"/></g>
<g><path style="opacity:0.004" fill="#000000" d="M 299.5,347.5 C 300.833,348.167 300.833,348.167 299.5,347.5 Z"/></g>
<g><path style="opacity:0.004" fill="#000000" d="M 298.5,348.5 C 298.833,348.5 299.167,348.5 299.5,348.5C 299.315,349.17 298.981,349.17 298.5,348.5 Z"/></g>
<g><path style="opacity:0.004" fill="#000000" d="M 297.5,349.5 C 297.833,349.5 298.167,349.5 298.5,349.5C 298.315,350.17 297.981,350.17 297.5,349.5 Z"/></g>
</svg>
